<svg width="124" height="28" viewBox="0 0 124 28" fill="none" xmlns="http://www.w3.org/2000/svg">
<path d="M0.44 27V0.539999H4.328C6.656 0.539999 8.372 1.188 9.476 2.484C10.58 3.768 11.132 5.664 11.132 8.172C11.132 9.66 10.868 10.95 10.34 12.042C9.824 13.122 9.194 13.914 8.45 14.418L11.096 27H7.208L5.012 15.84H4.328V27H0.44ZM4.328 12.24C5.048 12.24 5.618 12.084 6.038 11.772C6.458 11.448 6.758 10.992 6.938 10.404C7.118 9.816 7.208 9.12 7.208 8.316C7.208 7.056 6.998 6.09 6.578 5.418C6.17 4.734 5.42 4.392 4.328 4.392V12.24ZM17.2492 27.252C15.7972 27.252 14.6572 26.766 13.8292 25.794C13.0012 24.81 12.5872 23.568 12.5872 22.068V12.204C12.5872 10.704 13.0012 9.468 13.8292 8.496C14.6572 7.512 15.7972 7.02 17.2492 7.02C18.6892 7.02 19.8232 7.512 20.6512 8.496C21.4912 9.468 21.9112 10.704 21.9112 12.204V22.068C21.9112 23.568 21.4912 24.81 20.6512 25.794C19.8232 26.766 18.6892 27.252 17.2492 27.252ZM17.2492 24.084C17.7172 24.084 18.0412 23.898 18.2212 23.526C18.4012 23.142 18.4912 22.656 18.4912 22.068V12.204C18.4912 11.604 18.4012 11.118 18.2212 10.746C18.0412 10.374 17.7172 10.188 17.2492 10.188C16.7812 10.188 16.4572 10.374 16.2772 10.746C16.0972 11.118 16.0072 11.604 16.0072 12.204V22.068C16.0072 22.668 16.0972 23.154 16.2772 23.526C16.4572 23.898 16.7812 24.084 17.2492 24.084ZM30.041 27.288C29.537 27.288 29.051 27.132 28.583 26.82C28.115 26.496 27.641 26.124 27.161 25.704V27H23.525V0.539999H27.161V8.604C27.617 8.172 28.097 7.8 28.601 7.488C29.105 7.176 29.585 7.02 30.041 7.02C30.665 7.02 31.181 7.212 31.589 7.596C32.009 7.968 32.321 8.448 32.525 9.036C32.741 9.624 32.849 10.236 32.849 10.872V23.436C32.849 24.072 32.741 24.69 32.525 25.29C32.309 25.878 31.991 26.358 31.571 26.73C31.151 27.102 30.641 27.288 30.041 27.288ZM28.313 23.868C28.589 23.868 28.805 23.754 28.961 23.526C29.129 23.298 29.213 23.016 29.213 22.68V11.628C29.213 11.28 29.129 10.998 28.961 10.782C28.805 10.554 28.589 10.44 28.313 10.44C28.049 10.44 27.791 10.566 27.539 10.818C27.287 11.07 27.161 11.34 27.161 11.628V22.68C27.161 23.016 27.287 23.298 27.539 23.526C27.791 23.754 28.049 23.868 28.313 23.868ZM38.9406 27.252C37.4886 27.252 36.3486 26.766 35.5206 25.794C34.6926 24.81 34.2786 23.568 34.2786 22.068V12.204C34.2786 10.704 34.6926 9.468 35.5206 8.496C36.3486 7.512 37.4886 7.02 38.9406 7.02C40.3806 7.02 41.5146 7.512 42.3426 8.496C43.1826 9.468 43.6026 10.704 43.6026 12.204V22.068C43.6026 23.568 43.1826 24.81 42.3426 25.794C41.5146 26.766 40.3806 27.252 38.9406 27.252ZM38.9406 24.084C39.4086 24.084 39.7326 23.898 39.9126 23.526C40.0926 23.142 40.1826 22.656 40.1826 22.068V12.204C40.1826 11.604 40.0926 11.118 39.9126 10.746C39.7326 10.374 39.4086 10.188 38.9406 10.188C38.4726 10.188 38.1486 10.374 37.9686 10.746C37.7886 11.118 37.6986 11.604 37.6986 12.204V22.068C37.6986 22.668 37.7886 23.154 37.9686 23.526C38.1486 23.898 38.4726 24.084 38.9406 24.084ZM45.6124 19.008V15.588H50.8324V19.008H45.6124ZM52.7511 27L56.7471 0.539999H61.4991L65.4951 27H61.7151L60.9951 21.6H57.2511L56.5311 27H52.7511ZM57.7911 17.496H60.4551L59.3391 8.604L59.2311 7.2H59.0151L58.9071 8.604L57.7911 17.496ZM69.6413 27.288C69.0413 27.288 68.5313 27.102 68.1113 26.73C67.6913 26.358 67.3733 25.878 67.1573 25.29C66.9413 24.69 66.8333 24.072 66.8333 23.436V10.872C66.8333 10.236 66.9353 9.624 67.1393 9.036C67.3553 8.448 67.6733 7.968 68.0933 7.596C68.5133 7.212 69.0293 7.02 69.6413 7.02C70.0973 7.02 70.5773 7.176 71.0813 7.488C71.5853 7.8 72.0653 8.172 72.5213 8.604V0.539999H76.1573V27H72.5213V25.704C72.0413 26.124 71.5673 26.496 71.0993 26.82C70.6313 27.132 70.1453 27.288 69.6413 27.288ZM71.3693 23.868C71.6453 23.868 71.9033 23.754 72.1433 23.526C72.3953 23.298 72.5213 23.016 72.5213 22.68V11.628C72.5213 11.34 72.3953 11.07 72.1433 10.818C71.9033 10.566 71.6453 10.44 71.3693 10.44C71.1053 10.44 70.8893 10.554 70.7213 10.782C70.5533 10.998 70.4693 11.28 70.4693 11.628V22.68C70.4693 23.016 70.5533 23.298 70.7213 23.526C70.8893 23.754 71.1053 23.868 71.3693 23.868ZM81.1185 27L77.9145 7.308H81.4425L82.6665 18.72L82.7745 20.7H83.0625L83.1705 18.72L84.3945 7.308H87.9225L84.7185 27H81.1185ZM89.2714 27V7.308H92.9074V27H89.2714ZM89.2714 4.176V0.539999H92.9074V4.176H89.2714ZM99.4324 27.288C98.5804 27.288 97.8364 27.144 97.2004 26.856C96.5644 26.568 96.0364 26.16 95.6164 25.632C95.1964 25.092 94.8784 24.456 94.6624 23.724C94.4584 22.992 94.3564 22.176 94.3564 21.276H97.7404C97.7404 22.08 97.8664 22.782 98.1184 23.382C98.3824 23.97 98.8204 24.264 99.4324 24.264C99.9604 24.264 100.302 24.042 100.458 23.598C100.614 23.154 100.692 22.644 100.692 22.068C100.692 21.396 100.428 20.712 99.9004 20.016C99.3844 19.308 98.8444 18.678 98.2804 18.126C97.3084 17.166 96.4984 16.218 95.8504 15.282C95.2144 14.346 94.8964 13.248 94.8964 11.988C94.8964 10.5 95.2864 9.3 96.0664 8.388C96.8464 7.476 97.9564 7.02 99.3964 7.02C100.26 7.02 100.986 7.134 101.574 7.362C102.174 7.59 102.654 7.932 103.014 8.388C103.374 8.844 103.632 9.402 103.788 10.062C103.956 10.722 104.04 11.484 104.04 12.348H100.656C100.656 11.724 100.59 11.184 100.458 10.728C100.326 10.272 99.9964 10.044 99.4684 10.044C99.0364 10.044 98.7304 10.23 98.5504 10.602C98.3704 10.962 98.2804 11.424 98.2804 11.988C98.2804 12.648 98.4364 13.236 98.7484 13.752C99.0724 14.256 99.6064 14.874 100.35 15.606C101.286 16.518 102.138 17.49 102.906 18.522C103.686 19.554 104.076 20.676 104.076 21.888C104.076 22.68 103.968 23.406 103.752 24.066C103.548 24.726 103.242 25.296 102.834 25.776C102.438 26.256 101.952 26.628 101.376 26.892C100.812 27.156 100.164 27.288 99.4324 27.288ZM109.991 27.252C108.539 27.252 107.399 26.766 106.571 25.794C105.743 24.81 105.329 23.568 105.329 22.068V12.204C105.329 10.704 105.743 9.468 106.571 8.496C107.399 7.512 108.539 7.02 109.991 7.02C111.431 7.02 112.565 7.512 113.393 8.496C114.233 9.468 114.653 10.704 114.653 12.204V22.068C114.653 23.568 114.233 24.81 113.393 25.794C112.565 26.766 111.431 27.252 109.991 27.252ZM109.991 24.084C110.459 24.084 110.783 23.898 110.963 23.526C111.143 23.142 111.233 22.656 111.233 22.068V12.204C111.233 11.604 111.143 11.118 110.963 10.746C110.783 10.374 110.459 10.188 109.991 10.188C109.523 10.188 109.199 10.374 109.019 10.746C108.839 11.118 108.749 11.604 108.749 12.204V22.068C108.749 22.668 108.839 23.154 109.019 23.526C109.199 23.898 109.523 24.084 109.991 24.084ZM116.267 27V7.308H119.903V9.504C119.975 9.024 120.197 8.598 120.569 8.226C120.941 7.854 121.391 7.56 121.919 7.344C122.459 7.128 122.999 7.02 123.539 7.02V11.052C123.383 10.992 123.215 10.956 123.035 10.944C122.867 10.92 122.699 10.908 122.531 10.908C121.739 10.908 121.103 11.124 120.623 11.556C120.143 11.988 119.903 12.576 119.903 13.32V27H116.267Z" fill="black"/>
</svg>
